<svg width="129.490625px" height="57.8px" xmlns="http://www.w3.org/2000/svg" viewBox="185.2546875 46.1 129.490625 57.8" style="background: rgba(255, 255, 255, 0);" preserveAspectRatio="xMidYMid"><defs><linearGradient id="editing-gradient-gradient" x1="0" x2="1" y1="0.5" y2="0.5" gradientUnits="objectBoundingBox"><stop offset="0" stop-color="#222222"></stop><stop offset="1" stop-color="#212529"></stop></linearGradient></defs><g><g transform="translate(210.47941726446152, 81.60000228881836)"><path d="M10.56 0.48L10.56 0.48L10.56 0.48Q7.66 0.48 7.66-1.78L7.66-1.78L7.66-1.78Q7.68-2.40 7.87-3.46L7.87-3.46L8.30-5.66L8.30-5.66Q8.95-8.78 8.95-9.48L8.95-9.48L8.95-9.48Q8.95-10.87 8.14-10.87L8.14-10.87L8.14-10.87Q6.77-10.87 6.05-7.30L6.05-7.30L4.63 0L-0.19 0.48L2.30-12.26L6.24-12.72L5.86-10.37L5.86-10.37Q6.98-12.72 10.44-12.72L10.44-12.72L10.44-12.72Q12.12-12.72 12.83-12.01L12.83-12.01L12.83-12.01Q13.54-11.30 13.54-9.72L13.54-9.72L13.54-9.72Q13.54-8.23 12.77-4.75L12.77-4.75L12.77-4.75Q12.41-3.19 12.41-2.60L12.41-2.60L12.41-2.60Q12.41-2.02 12.73-1.68L12.73-1.68L12.73-1.68Q13.06-1.34 13.54-1.30L13.54-1.30L13.54-1.30Q13.30-0.48 12.47 0L12.47 0L12.47 0Q11.64 0.48 10.56 0.48ZM20.69 0.48L20.69 0.48L20.69 0.48Q15.41 0.48 15.41-4.49L15.41-4.49L15.41-4.49Q15.41-8.02 17.35-10.30L17.35-10.30L17.35-10.30Q19.42-12.72 22.99-12.72L22.99-12.72L22.99-12.72Q25.58-12.72 26.90-11.52L26.90-11.52L26.90-11.52Q28.22-10.32 28.22-7.80L28.22-7.80L28.22-7.80Q28.22-3.96 26.16-1.73L26.16-1.73L26.16-1.73Q24.14 0.48 20.69 0.48ZM21.31-9.96L21.31-9.96L21.31-9.96Q21.02-9.31 20.80-8.34L20.80-8.34L20.80-8.34Q20.57-7.37 20.28-5.83L20.28-5.83L20.28-5.83Q19.99-4.30 19.99-2.40L19.99-2.40L19.99-2.40Q19.99-1.78 20.20-1.37L20.20-1.37L20.20-1.37Q20.40-0.96 20.95-0.96L20.95-0.96L20.95-0.96Q21.50-0.96 21.85-1.22L21.85-1.22L21.85-1.22Q22.20-1.49 22.46-2.11L22.46-2.11L22.46-2.11Q22.94-3.22 23.33-5.27L23.33-5.27L23.33-5.27Q23.71-7.32 23.75-8.21L23.75-8.21L23.75-8.21Q23.78-9.10 23.78-9.76L23.78-9.76L23.78-9.76Q23.78-10.42 23.59-10.85L23.59-10.85L23.59-10.85Q23.40-11.28 22.86-11.28L22.86-11.28L22.86-11.28Q22.32-11.28 21.96-10.94L21.96-10.94L21.96-10.94Q21.60-10.61 21.31-9.96ZM38.35-11.83L38.35-11.83L38.35-11.83Q39.14-12.72 40.51-12.72L40.51-12.72L40.51-12.72Q41.35-12.72 42-12.26L42-12.26L42-12.26Q42.65-11.81 42.65-10.96L42.65-10.96L42.65-10.96Q42.65-10.10 42.38-9.19L42.38-9.19L42.38-9.19Q42.12-8.28 41.71-7.34L41.71-7.34L41.71-7.34Q40.90-5.52 39.77-4.01L39.77-4.01L39.77-4.01Q38.18-1.82 36.66-0.67L36.66-0.67L36.66-0.67Q35.14 0.48 33.48 0.48L33.48 0.48L33.48 0.48Q32.14 0.48 31.32 0.17L31.32 0.17L31.32 0.17Q31.18-4.87 31.00-6.67L31.00-6.67L31.00-6.67Q30.82-8.47 30.67-9.46L30.67-9.46L30.67-9.46Q30.43-11.38 29.71-11.83L29.71-11.83L29.71-11.83Q30.26-12.31 30.80-12.52L30.80-12.52L30.80-12.52Q31.34-12.72 32.46-12.72L32.46-12.72L32.46-12.72Q33.58-12.72 34.37-11.84L34.37-11.84L34.37-11.84Q35.16-10.97 35.32-9.42L35.32-9.42L35.32-9.42Q35.47-7.87 35.47-6L35.47-6L35.47-6Q35.47-4.13 35.33-1.87L35.33-1.87L35.33-1.87Q36.07-2.40 36.86-4.01L36.86-4.01L36.86-4.01Q37.94-6.24 38.33-8.93L38.33-8.93L38.33-8.93Q38.45-9.74 38.45-10.61L38.45-10.61L38.45-10.61Q38.45-11.47 38.35-11.83ZM51-1.01L51-1.01L51-1.01Q49.85 0.48 46.99 0.48L46.99 0.48L46.99 0.48Q45.50 0.48 44.42-0.42L44.42-0.42L44.42-0.42Q43.34-1.32 43.34-2.62L43.34-2.62L43.34-2.62Q43.34-3.34 43.42-3.70L43.42-3.70L45.02-12.24L49.90-12.72L48.14-3.46L48.14-3.46Q48.05-2.93 48.05-2.62L48.05-2.62L48.05-2.62Q48.05-1.22 48.89-1.22L48.89-1.22L48.89-1.22Q49.82-1.22 50.50-2.50L50.50-2.50L50.50-2.50Q50.71-2.90 50.81-3.43L50.81-3.43L52.51-12.24L57.24-12.72L55.46-3.36L55.46-3.36Q55.39-3 55.39-2.62L55.39-2.62L55.39-2.62Q55.39-2.23 55.61-1.81L55.61-1.81L55.61-1.81Q55.82-1.39 56.52-1.30L56.52-1.30L56.52-1.30Q56.38-0.72 55.87-0.34L55.87-0.34L55.87-0.34Q54.82 0.48 53.68 0.48L53.68 0.48L53.68 0.48Q52.54 0.48 51.86 0.07L51.86 0.07L51.86 0.07Q51.19-0.34 51-1.01ZM75.82 0.48L75.82 0.48L75.82 0.48Q72.91 0.48 72.91-1.78L72.91-1.78L72.91-1.78Q72.91-2.76 73.33-4.67L73.33-4.67L73.33-4.67Q73.75-6.58 73.90-7.34L73.90-7.34L73.90-7.34Q74.23-9.10 74.23-9.65L74.23-9.65L74.23-9.65Q74.23-10.87 73.32-10.87L73.32-10.87L73.32-10.87Q72.72-10.87 72.14-10.04L72.14-10.04L72.14-10.04Q71.57-9.22 71.30-7.56L71.30-7.56L69.82 0L65.14 0.48L66.43-6.05L66.43-6.05Q66.65-7.13 66.84-8.35L66.84-8.35L66.84-8.35Q67.03-9.58 67.03-9.77L67.03-9.77L67.03-9.77Q67.03-10.87 66.22-10.87L66.22-10.87L66.22-10.87Q65.66-10.87 65.06-10.06L65.06-10.06L65.06-10.06Q64.46-9.24 64.13-7.56L64.13-7.56L62.66 0L57.94 0.48L60.46-12.24L64.37-12.72L63.96-10.30L63.96-10.30Q64.58-11.59 65.74-12.16L65.74-12.16L65.74-12.16Q66.89-12.72 68.69-12.72L68.69-12.72L68.69-12.72Q69.72-12.72 70.39-12.22L70.39-12.22L70.39-12.22Q71.06-11.71 71.28-10.90L71.28-10.90L71.28-10.90Q71.69-11.74 72.73-12.23L72.73-12.23L72.73-12.23Q73.78-12.72 75.06-12.72L75.06-12.72L75.06-12.72Q76.34-12.72 76.98-12.44L76.98-12.44L76.98-12.44Q77.62-12.17 78-11.71L78-11.71L78-11.71Q78.65-10.87 78.65-9.34L78.65-9.34L78.65-9.34Q78.65-7.82 78-4.68L78-4.68L78-4.68Q77.66-3.14 77.66-2.58L77.66-2.58L77.66-2.58Q77.66-2.02 77.99-1.68L77.99-1.68L77.99-1.68Q78.31-1.34 78.79-1.30L78.79-1.30L78.79-1.30Q78.55-0.48 77.72 0L77.72 0L77.72 0Q76.90 0.48 75.82 0.48Z" fill="url(#editing-gradient-gradient)"></path></g></g><style>text {
  font-size: 64px;
  font-family: Arial Black;
  dominant-baseline: central;
  text-anchor: middle;
}</style></svg>